# AST/ASF file generated using VICON BodyLanguage
# -----------------------------------------------
:version 1.10
:name VICON
:units
  mass 1.0
  length 0.45
  angle deg
:documentation
   .ast/.asf automatically generated from VICON data using
   VICON BodyBuilder and BodyLanguage model FoxedUp or BRILLIANT.MOD
:root
   order TX TY TZ RX RY RZ
   axis XYZ
   position 0 0 0  
   orientation 0 0 0 
:bonedata
  begin
     id 1 
     name lhipjoint
     direction 0.734343 -0.627749 0.258209 
     length 2.5437 
     axis 0 0 0  XYZ
  end
  begin
     id 2 
     name lfemur
     direction 0.34202 -0.939693 0  
     length 6.7391  
     axis 0 0 20  XYZ
    dof rx ry rz
    limits (-160.0 20.0)
           (-70.0 70.0)
           (-60.0 70.0)
  end
  begin
     id 3 
     name ltibia
     direction 0.34202 -0.939693 0   
     length 7.21536   
     axis 0 0 20   XYZ
    dof rx
    limits (-10.0 170.0)
  end
  begin
     id 4 
     name lfoot
     direction 0.0489572 -0.134509 0.989702   
     length 1.61313   
     axis -90 7.62852e-016 20   XYZ
    dof rx rz
    limits (-45.0 90.0)
           (-70.0 20.0)
  end
  begin
     id 5 
     name ltoes
     direction 1.53451e-011 -4.21692e-011 1   
     length 0.823104   
     axis -90 7.62852e-016 20   XYZ
    dof rx
    limits (-90.0 20.0)
  end
  begin
     id 6 
     name rhipjoint
     direction -0.746398 -0.615468 0.253157   
     length 2.59446  
     axis 0 0 0  XYZ 
  end
  begin
     id 7 
     name rfemur
     direction -0.34202 -0.939693 0   
     length 6.7075   
     axis 0 0 -20   XYZ
    dof rx ry rz
    limits (-160.0 20.0)
           (-70.0 70.0)
           (-70.0 60.0)
  end
  begin
     id 8 
     name rtibia
     direction -0.34202 -0.939693 0   
     length 7.27262   
     axis 0 0 -20   XYZ
    dof rx
    limits (-10.0 170.0)
 end
 begin
     id 9 
     name rfoot
     direction -0.0455203 -0.125066 0.991104   
     length 1.91095  
     axis -90 -7.62852e-016 -20   XYZ
    dof rx rz
    limits (-45.0 90.0)
           (-20.0 70.0)
  end
  begin
     id 10 
     name rtoes
     direction -1.53601e-011 -4.21913e-011 1   
     length 0.969037   
     axis -90 -7.62852e-016 -20   XYZ
    dof rx
    limits (-90.0 20.0)
  end
  begin
     id 11 
     name lowerback
     direction 0.0181546 0.999122 -0.0377542   
     length 1.99916   
     axis 0 0 0   XYZ
    dof rx ry rz
    limits (-20.0 45.0)
           (-30.0 30.0)
           (-30.0 30.0)
  end
  begin
     id 12 
     name upperback
     direction 0.0203486 0.99589 0.0882534   
     length 1.951   
     axis 0 0 0   XYZ
    dof rx ry rz
    limits (-20.0 45.0)
           (-30.0 30.0)
           (-30.0 30.0)
  end
  begin
     id 13 
     name thorax
     direction 0.0131685 0.994241 0.106355   
     length 1.97461   
     axis 0 0 0   XYZ
    dof rx ry rz
    limits (-20.0 45.0)
           (-30.0 30.0)
           (-30.0 30.0)
  end
  begin
     id 14 
     name lowerneck
     direction -0.0281395 0.999325 0.023617   
     length 1.7959   
     axis 0 0 0   XYZ
    dof rx ry rz
    limits (-20.0 45.0)
           (-30.0 30.0)
           (-30.0 30.0)
  end
  begin
     id 15 
     name upperneck
     direction 0.0288721 0.991984 -0.123019   
     length 1.79917   
     axis 0 0 0   XYZ
    dof rx ry rz
    limits (-20.0 45.0)
           (-30.0 30.0)
           (-30.0 30.0)
  end
  begin
     id 16
     name head
     direction 0.0133797 0.998944 -0.0439492  
     length 1.80902  
     axis 0 0 0   XYZ
    dof rx ry rz
    limits (-20.0 45.0)
           (-30.0 30.0)
           (-30.0 30.0)
  end
  begin
     id 17 
     name lclavicle
     direction 0.919195 0.377107 0.113449  
     length 3.17815  
     axis 0 0 0   XYZ
    dof ry rz
    limits (-20.0 10.0)
           (0.0 20.0)
  end
  begin
     id 18 
     name lhumerus
     direction 1 -4.48959e-011 2.13129e-027   
     length 4.84137   
     axis 180 -30 -90   XYZ
    dof rx ry rz
    limits (-60.0 90.0)
           (-90.0 90.0)
           (-90.0 90.0)
  end
  begin
     id 19
     name lradius
     direction 1 -4.48957e-011 -6.30627e-028   
     length 3.2452   
     axis 180 -30 -90   XYZ
    dof rx
    limits (-10.0 170.0)
  end
  begin
     id 20
     name lwrist
     direction 1 -4.4901e-011 9.13299e-027   
     length 1.6226   
     axis -6.84618e-015 90 90   XYZ
    dof ry
    limits (-180.0 0.0)
 end
  begin
     id 21 
     name lhand
     direction 1 -4.48816e-011 1.82293e-026   
     length 0.521221   
     axis -1.16502e-014 90 90   XYZ
    dof rx rz
    limits (-90.0 90.0)
           (-45.0 45.0)
  end
  begin
     id 22 
     name lfingers
     direction 1 -4.49108e-011 3.65687e-026   
     length 0.420221   
     axis -2.33008e-014 90 90   XYZ
    dof rx
    limits (0.0 90.0)
  end
  begin
     id 23
     name lthumb
     direction 0.707107 -6.34943e-011 0.707107   
     length 0.603356   
     axis -90 45 5.69224e-014   XYZ
    dof rx rz
    limits (-45.0 45.0)
           (-45.0 45.0)
  end
  begin
     id 24 
     name rclavicle
     direction -0.90847 0.38596 0.160368   
     length 3.12973  
     axis 0 0 0   XYZ 
    dof ry rz
    limits (-10.0 20.0)
           (-20.0 0.0)
  end
  begin
     id 25 
     name rhumerus
     direction -1 -4.48974e-011 4.47268e-028  
     length 4.72284   
     axis 180 30 90   XYZ
    dof rx ry rz
    limits (-90.0 60.0)
           (-90.0 90.0)
           (-90.0 90.0)
  end
  begin
     id 26 
     name rradius
     direction -1 -4.48969e-011 3.43203e-027   
     length 3.23459   
     axis 180 30 90   XYZ
    dof rx
    limits (-10.0 170.0)
  end
  begin
     id 27 
     name rwrist
     direction -1 -4.48969e-011 9.12911e-027   
     length 1.6173   
     axis -6.84618e-015 -90 -90   XYZ
    dof ry
    limits (-180.0 0.0)
  end
  begin
     id 28
     name rhand
     direction -1 -4.49194e-011 1.83006e-026   
     length 0.307416   
     axis -1.16502e-014 -90 -90   XYZ
    dof rx rz
    limits (-90.0 90.0)
           (-45.0 45.0)
  end
  begin
     id 29
     name rfingers
     direction -1 -4.48423e-011 3.63103e-026   
     length 0.247847   
     axis -2.33008e-014 -90 -90   XYZ
    dof rx
    limits (0.0 90.0)
  end
  begin
     id 30
     name rthumb
     direction -0.707107 -6.34802e-011 0.707107   
     length 0.35586   
     axis -90 -45 -5.69224e-014   XYZ
    dof rx rz
    limits (-45.0 45.0)
           (-45.0 45.0)
  end
:hierarchy
  begin
    root lhipjoint rhipjoint lowerback
    lhipjoint lfemur
    lfemur ltibia
    ltibia lfoot
    lfoot ltoes
    rhipjoint rfemur
    rfemur rtibia
    rtibia rfoot
    rfoot rtoes
    lowerback upperback
    upperback thorax
    thorax lowerneck lclavicle rclavicle
    lowerneck upperneck
    upperneck head
    lclavicle lhumerus
    lhumerus lradius
    lradius lwrist
    lwrist lhand lthumb
    lhand lfingers
    rclavicle rhumerus
    rhumerus rradius
    rradius rwrist
    rwrist rhand rthumb
    rhand rfingers
  end

#!OML:ASF H:\Terrain\Patient Classification 1\Animal1\Tuesday\Animal1.ASF
:FULLY-SPECIFIED
:DEGREES
1032
root 10.0746 16.5605 -16.7237 19.6416 10.9341 -5.10462
lowerback 7.47948 0.818201 1.66407
upperback 1.44034 1.10073 -4.12181
thorax -2.59013 0.529042 -5.33031
lowerneck -6.22194 7.02603 -3.53771
upperneck -13.2461 10.307 5.19474
head -3.78799 5.22186 2.16538
rclavicle 7.95139e-015 -1.11319e-014
rhumerus -47.3448 9.3605 -72.2631
rradius 115.917
rwrist 8.11389
rhand -0.910062 12.9638
rfingers 7.12502
rthumb 24.7184 -15.4593
lclavicle 7.95139e-015 -1.11319e-014
lhumerus -47.5668 -1.14443 71.3433
lradius 118.515
lwrist -51.7847
lhand 19.0952 30.0912
lfingers 7.12502
lthumb 43.6913 54.0883
rfemur -29.6657 -6.15104 22.6831
rtibia 38.2152
rfoot 5.84247 -34.4752
rtoes 10.502
lfemur -38.1943 2.18047 -10.3357
ltibia 32.4287
lfoot -11.6409 18.8731
ltoes 1.69869
1033
root 10.1773 16.5386 -16.6746 19.363 11.6911 -5.09833
lowerback 7.67569 0.740625 1.53837
upperback 1.46715 0.986715 -4.16579
thorax -2.68507 0.47197 -5.29885
lowerneck -6.18745 6.86814 -3.77487
upperneck -13.1629 10.1414 5.60976
head -3.80047 5.13956 2.35181
rclavicle 3.02153e-014 4.77083e-015
rhumerus -47.9379 9.15329 -72.099
rradius 116.067
rwrist 8.15383
rhand -0.948187 12.862
rfingers 7.12502
rthumb 24.6819 -15.5662
lclavicle 3.02153e-014 4.77083e-015
lhumerus -46.6108 -1.76259 71.5859
lradius 118.315
lwrist -51.9692
lhand 18.1588 30.1741
lfingers 7.12502
lthumb 42.8162 54.4847
rfemur -30.0491 -6.73301 22.4463
rtibia 39.8616
rfoot 6.49088 -34.5926
rtoes 13.0178
lfemur -37.8309 2.15917 -10.7898
ltibia 32.3766
lfoot -11.9687 18.3286
ltoes -0.283233
1034
root 10.2777 16.4992 -16.6301 19.0237 12.4853 -5.33086
lowerback 7.83207 0.662842 1.56989
upperback 1.60346 0.892476 -4.05489
thorax -2.64179 0.428217 -5.19213
lowerneck -6.36707 6.70307 -4.18638
upperneck -13.054 9.97127 5.98523
head -3.77202 5.06924 2.56543
rclavicle -1.11319e-014 1.59028e-014
rhumerus -48.2624 8.9197 -71.7283
rradius 116.241
rwrist 7.85789
rhand -0.258755 12.4884
rfingers 7.12502
rthumb 25.3425 -15.8478
lclavicle -1.11319e-014 1.59028e-014
lhumerus -45.5332 -2.28348 72.0548
lradius 118.17
lwrist -52.3687
lhand 17.9092 30.1059
lfingers 7.12502
lthumb 42.5826 54.4977
rfemur -30.5183 -7.16725 22.477
rtibia 41.6178
rfoot 6.58285 -35.0693
rtoes 19.0664
lfemur -37.6038 2.26181 -10.9827
ltibia 32.4952
lfoot -12.1965 17.9902
ltoes -6.30657
1035
root 10.3801 16.4501 -16.587 18.8684 13.1815 -5.33835
lowerback 7.81321 0.591486 1.35368
upperback 1.80148 0.788675 -3.97506
thorax -2.44082 0.385044 -4.97053
lowerneck -6.58735 6.60318 -4.50524
upperneck -13.187 9.87149 6.0419
head -3.79804 5.03873 2.65129
rclavicle 7.95139e-015 2.8625e-014
rhumerus -48.335 8.62023 -71.2826
rradius 116.256
rwrist 7.44157
rhand 0.142256 12.3786
rfingers 7.12502
rthumb 25.7266 -15.9025
lclavicle 7.95139e-015 2.8625e-014
lhumerus -44.1779 -2.77929 72.5238
lradius 117.992
lwrist -52.6838
lhand 18.2095 29.5543
lfingers 7.12502
lthumb 42.8636 53.8483
rfemur -31.2363 -7.50344 22.2321
rtibia 43.4785
rfoot 6.68712 -35.3925
rtoes 23.8333
lfemur -37.5798 2.39286 -11.4812
ltibia 32.7735
lfoot -12.2632 17.6512
ltoes -11.1868
1036
root 10.4832 16.4139 -16.5472 18.6738 13.8898 -5.23902
lowerback 8.04202 0.474828 1.09261
upperback 1.88693 0.614606 -3.9488
thorax -2.49956 0.300401 -4.78034
lowerneck -6.43529 6.60252 -4.48573
upperneck -13.4827 9.86322 5.82858
head -3.91535 5.03626 2.56609
rclavicle 7.07673e-014 -7.31528e-014
rhumerus -48.5269 8.43284 -70.9706
rradius 116.173
rwrist 7.09136
rhand 0.412806 12.1674
rfingers 7.12502
rthumb 25.9857 -16.076
lclavicle 7.07673e-014 -7.31528e-014
lhumerus -42.9608 -3.41288 72.9374
lradius 117.819
lwrist -52.8271
lhand 18.5453 29.5429
lfingers 7.12502
lthumb 43.1776 53.7258
rfemur -31.9635 -7.8315 21.8709
rtibia 45.4169
rfoot 6.43597 -35.8093
rtoes 27.2189
lfemur -37.5474 2.3763 -12.0291
ltibia 33.1431
lfoot -13.4637 16.8111
ltoes -8.10005
1037
root 10.5817 16.3787 -16.5129 18.3869 14.6412 -5.07282
lowerback 8.54901 0.332836 0.813719
upperback 1.93272 0.397796 -3.99207
thorax -2.75538 0.191376 -4.65322
lowerneck -6.26636 6.54871 -4.3555
upperneck -13.6694 9.78519 5.74878
head -3.99444 4.99001 2.50982
rclavicle -3.26007e-014 2.70347e-014
rhumerus -48.7262 8.14486 -70.7872
rradius 116.134
rwrist 6.54707
rhand 1.19204 11.7897
rfingers 7.12502
rthumb 26.7316 -16.342
lclavicle -3.26007e-014 2.70347e-014
lhumerus -41.8136 -4.23296 73.4151
lradius 117.638
lwrist -52.9875
lhand 18.4161 30.109
lfingers 7.12502
lthumb 43.0568 54.3348
rfemur -32.6773 -8.16244 21.4502
rtibia 47.4128
rfoot 5.40231 -36.5345
rtoes 31.5405
lfemur -37.4654 2.3232 -12.6527
ltibia 33.5654
lfoot -14.5326 16.1676
ltoes -5.98541
1038
root 10.6813 16.3387 -16.481 18.0589 15.6024 -4.78403
lowerback 9.18076 0.146396 0.531884
upperback 2.04771 0.120407 -4.00607
thorax -3.01152 0.0542243 -4.48481
lowerneck -6.23403 6.39446 -4.54023
upperneck -14.1844 9.66225 6.14854
head -3.74881 4.90178 2.44254
rclavicle -2.78299e-014 -3.18055e-015
rhumerus -48.9581 7.7706 -70.4046
rradius 116.161
rwrist 5.71712
rhand 1.38273 11.9484
rfingers 7.12502
rthumb 26.9141 -16.1553
lclavicle -2.78299e-014 -3.18055e-015
lhumerus -40.4062 -5.03892 74.02
lradius 117.397
lwrist -53.1367
lhand 18.2506 30.27
lfingers 7.12502
lthumb 42.902 54.5505
rfemur -33.358 -8.71478 20.9319
rtibia 49.4305
rfoot 5.43565 -37.1628
rtoes 34.3368
lfemur -37.3848 2.20871 -13.4687
ltibia 34.0956
lfoot -14.5478 15.9876
ltoes -9.48284
1039
root 10.7779 16.2984 -16.4501 17.6642 16.6928 -4.63467
lowerback 9.86108 -0.0469177 0.368099
upperback 2.17635 -0.15377 -3.90545
thorax -3.27673 -0.0811851 -4.25929
lowerneck -6.07353 6.21053 -4.79314
upperneck -14.6291 9.46267 6.28002
head -3.9147 4.80511 2.51617
rclavicle 3.26007e-014 6.36111e-015
rhumerus -49.3641 7.29773 -69.9613
rradius 116.243
rwrist 4.90867
rhand 1.47964 12.1461
rfingers 7.12502
rthumb 27.0068 -15.9432
lclavicle 3.26007e-014 6.36111e-015
lhumerus -38.8587 -5.83471 74.6698
lradius 117.22
lwrist -53.2908
lhand 18.0413 30.4979
lfingers 7.12502
lthumb 42.7063 54.8469
rfemur -33.996 -9.27847 20.6136
rtibia 51.4159
rfoot 6.71714 -37.4799
rtoes 34.4748
lfemur -37.3454 2.07551 -14.1032
ltibia 34.7602
lfoot -14.4262 15.708
ltoes -12.2718
1040
root 10.8628 16.2538 -16.4193 17.3174 17.6528 -4.62121
lowerback 10.5005 -0.16405 0.179865
upperback 2.25877 -0.332663 -3.82361
thorax -3.5571 -0.169184 -4.04785
lowerneck -6.03871 6.03183 -4.7453
upperneck -14.8415 9.23395 6.28687
head -3.96886 4.68791 2.51386
rclavicle 5.725e-014 1.11319e-014
rhumerus -49.8161 6.62276 -69.7569
rradius 116.339
rwrist 4.11215
rhand 2.38019 11.8981
rfingers 7.12502
rthumb 27.8681 -16.0547
lclavicle 5.725e-014 1.11319e-014
lhumerus -37.4091 -6.84886 75.1878
lradius 117.125
lwrist -53.5116
lhand 17.4886 30.5642
lfingers 7.12502
lthumb 42.1887 55.0907
rfemur -34.731 -9.58988 20.5059
rtibia 53.3626
rfoot 6.92755 -37.5292
rtoes 35.0399
lfemur -37.439 1.95147 -14.486
ltibia 35.5085
lfoot -14.5099 15.1045
ltoes -12.4613
1041
root 10.94 16.2077 -16.3845 17.0734 18.4898 -4.60097
lowerback 10.9512 -0.252652 -0.0598826
upperback 2.39919 -0.477734 -3.80606
thorax -3.66814 -0.237173 -3.87523
lowerneck -6.34736 5.90819 -4.55118
upperneck -14.7671 9.0783 6.36419
head -3.88156 4.60756 2.52385
rclavicle -1.74931e-014 0
rhumerus -50.1015 5.93713 -69.646
rradius 116.321
rwrist 3.37999
rhand 2.44536 11.995
rfingers 7.12502
rthumb 27.9304 -15.9477
lclavicle -1.74931e-014 0
lhumerus -35.8135 -7.90701 75.4963
lradius 116.885
lwrist -53.6555
lhand 17.1559 29.9487
lfingers 7.12502
lthumb 41.8769 54.5799
rfemur -35.5723 -9.78842 20.4623
rtibia 55.2272
rfoot 6.61051 -37.328
rtoes 35.4431
lfemur -37.6474 1.94567 -14.8455
ltibia 36.2993
lfoot -14.7554 14.4027
ltoes -14.2015
1042
root 11.0093 16.1691 -16.3451 16.9684 19.2842 -4.20116
lowerback 11.5275 -0.370458 -0.640356
upperback 2.46547 -0.713 -3.88626
thorax -3.92696 -0.347656 -3.5984
lowerneck -6.56066 5.78212 -4.4729
upperneck -14.7862 8.94211 6.57917
head -3.84972 4.53498 2.58866
rclavicle 5.64548e-014 -3.02153e-014
rhumerus -50.5078 5.33638 -69.5748
rradius 116.278
rwrist 2.76009
rhand 1.48763 12.2243
rfingers 7.12502
rthumb 27.0145 -15.8638
lclavicle 5.64548e-014 -3.02153e-014
lhumerus -34.1479 -8.82861 75.6356
lradius 116.514
lwrist -53.5861
lhand 17.1305 29.4706
lfingers 7.12502
lthumb 41.8531 54.1096
rfemur -36.4896 -9.88713 20.0303
rtibia 57.0047
rfoot 7.54186 -36.3876
rtoes 33.1808
lfemur -37.8538 1.97508 -15.5939
ltibia 37.1035
lfoot -15.2988 13.5723
ltoes -15.2715
1043
root 11.0773 16.1343 -16.3046 16.956 20.2215 -3.54176
lowerback 12.0354 -0.558314 -1.52082
upperback 2.58997 -1.07553 -3.8902
thorax -4.08158 -0.514719 -3.04811
lowerneck -6.54251 5.68391 -4.52309
upperneck -15.1394 8.85359 6.70009
head -3.96124 4.48765 2.63162
rclavicle -7.15625e-015 -9.54166e-015
rhumerus -50.7249 4.92106 -69.4023
rradius 116.221
rwrist 1.8965
rhand 1.06149 12.0367
rfingers 7.12502
rthumb 26.6067 -16.114
lclavicle -7.15625e-015 -9.54166e-015
lhumerus -32.4079 -9.68393 75.92
lradius 116.039
lwrist -53.6507
lhand 16.8834 29.5405
lfingers 7.12502
lthumb 41.6214 54.2562
rfemur -37.3946 -10.0744 19.3256
rtibia 58.6783
rfoot 8.33319 -34.6737
rtoes 30.0324
lfemur -38.0686 1.7781 -16.551
ltibia 37.9163
lfoot -15.8471 12.8564
ltoes -14.4768
1044
root 11.147 16.084 -16.2598 16.8604 21.2106 -3.29408
lowerback 12.3769 -0.672646 -2.0488
upperback 2.73633 -1.28703 -3.68552
thorax -4.10836 -0.610476 -2.49936
lowerneck -6.46266 5.54287 -4.76176
upperneck -15.6205 8.7118 6.75447
head -4.12379 4.42396 2.68304
rclavicle 6.36111e-014 3.18055e-015
rhumerus -50.9268 4.51361 -68.9883
rradius 116.129
rwrist 0.829194
rhand 1.19601 11.8757
rfingers 7.12502
rthumb 26.7354 -16.2554
lclavicle 6.36111e-014 3.18055e-015
lhumerus -30.7761 -10.9207 76.5011
lradius 115.559
lwrist -54.0075
lhand 16.239 30.1122
lfingers 7.12502
lthumb 41.0167 55.0233
rfemur -38.1977 -10.2599 19.0972
rtibia 60.1967
rfoot 7.34715 -33.0559
rtoes 27.4744
lfemur -38.3236 1.61852 -17.0738
ltibia 38.7141
lfoot -16.2589 12.5678
ltoes -14.7753
